<?xml version="1.0" encoding="UTF-8" standalone="no"?>
<!-- Created with Inkscape (http://www.inkscape.org/) -->

<svg
   xmlns:dc="http://purl.org/dc/elements/1.1/"
   xmlns:cc="http://creativecommons.org/ns#"
   xmlns:rdf="http://www.w3.org/1999/02/22-rdf-syntax-ns#"
   xmlns:svg="http://www.w3.org/2000/svg"
   xmlns="http://www.w3.org/2000/svg"
   xmlns:sodipodi="http://sodipodi.sourceforge.net/DTD/sodipodi-0.dtd"
   xmlns:inkscape="http://www.inkscape.org/namespaces/inkscape"
   width="112"
   height="40"
   viewBox="0 0 112 40.000001"
   id="svg3583"
   version="1.1"
   inkscape:version="0.91 r13725"
   sodipodi:docname="Criative.svg">
  <defs
     id="defs3585" />
  <sodipodi:namedview
     id="base"
     pagecolor="#ffffff"
     bordercolor="#666666"
     borderopacity="1.0"
     inkscape:pageopacity="0.0"
     inkscape:pageshadow="2"
     inkscape:zoom="2.8"
     inkscape:cx="114.57037"
     inkscape:cy="100.9681"
     inkscape:document-units="px"
     inkscape:current-layer="layer1"
     showgrid="false"
     inkscape:window-width="1440"
     inkscape:window-height="847"
     inkscape:window-x="-8"
     inkscape:window-y="-8"
     inkscape:window-maximized="1"
     units="px"
     showguides="true"
     inkscape:guide-bbox="true">
    <sodipodi:guide
       position="66.785714,19.285715"
       orientation="0,1"
       id="guide3687" />
  </sodipodi:namedview>
  <metadata
     id="metadata3588">
    <rdf:RDF>
      <cc:Work
         rdf:about="">
        <dc:format>image/svg+xml</dc:format>
        <dc:type
           rdf:resource="http://purl.org/dc/dcmitype/StillImage" />
        <dc:title></dc:title>
      </cc:Work>
    </rdf:RDF>
  </metadata>
  <g
     inkscape:label="Layer 1"
     inkscape:groupmode="layer"
     id="layer1"
     transform="translate(0,-1012.3622)">
    <g
       style="overflow:visible;fill-rule:evenodd;stroke-width:0.50099999;stroke-linejoin:bevel"
       id="g3544"
       transform="matrix(1.25,0,0,1.25,1.425625,1023.1974)">
      <g
         transform="scale(1,-1)"
         font-size="16"
         id="Document-2"
         style="font-size:16px;font-family:'Times New Roman';fill:none;stroke:#000000">
        <g
           transform="translate(0,-14.664)"
           id="Spread-8">
          <g
             id="Layer 1-9">
            <g
               stroke-miterlimit="79.8403193612775"
               id="Group-94"
               style="fill:#ff961c;fill-rule:nonzero;stroke:none;stroke-width:0.514;stroke-linecap:round;stroke-linejoin:round;stroke-miterlimit:79.84031677">
              <g
                 id="Group_1-5">
                <path
                   id="path3524"
                   d="m 9.743,10.258 0,2.857 c -0.062,0.328 -0.242,0.648 -0.539,0.96 -0.296,0.391 -0.64,0.586 -1.03,0.586 l -6.792,0 C 1.148,14.567 0.949,14.438 0.785,14.274 0.621,14.11 0.484,13.931 0.375,13.736 0.266,13.541 0.18,13.349 0.118,13.162 0.055,12.975 0.016,12.811 0,12.67 L 0,1.897 C 0,1.694 0.055,1.483 0.164,1.265 0.274,1.046 0.41,0.847 0.574,0.668 0.738,0.488 0.91,0.34 1.09,0.223 1.269,0.106 1.429,0.047 1.57,0.047 l 6.065,0 c 0.156,0 0.344,0.055 0.562,0.164 0.219,0.109 0.43,0.25 0.633,0.421 0.203,0.172 0.374,0.367 0.515,0.586 0.14,0.219 0.211,0.445 0.211,0.679 l 0,2.787 -2.694,0 0,-2.318 -4.075,0 0,9.976 4.075,0 0,-2.084 2.881,0 z"
                   inkscape:connector-curvature="0"
                   style="marker-start:none;marker-end:none" />
                <path
                   id="path3526"
                   d="m 11.493,2.014 1.054,0 0,4.122 -1.382,0 0,2.6 1.382,0 0,3.934 -1.054,0 0,1.991 8.712,0 c 0.141,0 0.321,-0.039 0.539,-0.117 0.219,-0.078 0.426,-0.188 0.621,-0.328 0.195,-0.141 0.367,-0.312 0.515,-0.515 0.148,-0.203 0.222,-0.43 0.222,-0.68 l 0,-3.934 C 22.04,8.915 21.942,8.751 21.81,8.595 21.677,8.439 21.525,8.275 21.353,8.103 21.181,7.947 21.064,7.842 21.002,7.787 20.939,7.733 20.908,7.658 20.908,7.565 c 0,-0.047 0.437,-0.617 1.312,-1.71 l 0,-3.817 0.96,0 0,-2.038 c -0.531,0 -0.992,0.012 -1.382,0.035 -0.39,0.024 -0.722,0.071 -0.995,0.141 -0.274,0.07 -0.5,0.179 -0.68,0.328 C 19.944,0.652 19.8,0.843 19.69,1.077 19.487,1.546 19.358,2.112 19.304,2.775 19.249,3.439 19.206,4.333 19.175,5.457 l -0.023,0.609 -3.654,0 0,-4.052 1.218,0 0,-1.967 -5.223,0 0,1.967 z m 7.635,6.815 0,3.513 -3.443,0 0,-3.513 3.443,0 z"
                   inkscape:connector-curvature="0"
                   style="marker-start:none;marker-end:none" />
                <path
                   id="path3528"
                   d="m 24.594,2.014 1.031,0 0,10.656 -1.031,0 0,1.991 5.223,0 0,-1.991 -1.241,0 0,-10.656 1.241,0 0,-1.967 -5.223,0 0,1.967 z"
                   inkscape:connector-curvature="0"
                   style="marker-start:none;marker-end:none" />
                <path
                   id="path3530"
                   d="m 31.558,2.248 1.054,0 0,4.052 -1.382,0 0,2.787 1.453,0 0,3.934 c 0,0.141 0.046,0.309 0.14,0.504 0.094,0.195 0.207,0.375 0.34,0.539 0.132,0.164 0.277,0.304 0.433,0.421 0.156,0.117 0.297,0.176 0.421,0.176 l 6.956,0 c 0.094,0.015 0.223,-0.02 0.386,-0.106 0.164,-0.085 0.324,-0.206 0.481,-0.363 0.156,-0.156 0.292,-0.339 0.409,-0.55 0.117,-0.211 0.184,-0.425 0.199,-0.644 l 0,-10.75 1.125,0 0,-2.201 -5.2,0 0,2.201 1.031,0 0,4.052 -3.654,0 0,-4.052 1.031,0 0,-2.201 -5.223,0 0,2.201 z m 4.192,9.626 0,-2.787 3.654,0 0,2.787 -0.351,0.468 -2.951,0 -0.352,-0.468 z"
                   inkscape:connector-curvature="0"
                   style="marker-start:none;marker-end:none" />
                <path
                   id="path3532"
                   d="m 47.778,2.014 1.031,0 0,10.328 -1.452,0 0,-2.084 -2.366,0 0,4.403 10.937,0 0,-4.403 -2.318,0 0,2.084 -1.663,0 0,-10.328 1.031,0 0,-1.967 -5.2,0 0,1.967 z"
                   inkscape:connector-curvature="0"
                   style="marker-start:none;marker-end:none" />
                <path
                   id="path3534"
                   d="m 57.345,2.014 1.031,0 0,10.656 -1.031,0 0,1.991 5.223,0 0,-1.991 -1.241,0 0,-10.656 1.241,0 0,-1.967 -5.223,0 0,1.967 z"
                   inkscape:connector-curvature="0"
                   style="marker-start:none;marker-end:none" />
                <path
                   id="path3536"
                   d="m 64.942,12.67 0,-5.363 2.833,-7.26 3.677,0 3.045,7.12 0,5.503 0.96,0 0,1.991 -5.035,0 0,-1.991 1.03,0 0,-5.129 -1.733,-5.175 -1.756,5.152 0,5.152 1.054,0 0,1.991 -5.036,0 0,-1.991 0.961,0 z"
                   inkscape:connector-curvature="0"
                   style="marker-start:none;marker-end:none" />
                <path
                   id="path3538"
                   d="m 77.389,2.014 0.866,0 0,4.169 -1.382,0 0,2.553 1.382,0 0,3.934 -0.866,0 0,1.991 9.93,0 0,-4.169 -2.694,0 0,1.85 -3.232,0 0,-3.606 2.764,0 0,-2.553 -2.764,0 0,-3.817 3.232,0 0,2.318 2.694,0 0,-4.637 -9.93,0 0,1.967 z"
                   inkscape:connector-curvature="0"
                   style="marker-start:none;marker-end:none" />
              </g>
            </g>
          </g>
        </g>
      </g>
    </g>
  </g>
</svg>
