<?xml version="1.0" encoding="UTF-8" standalone="no"?>
<!-- Created with Inkscape (http://www.inkscape.org/) -->

<svg
   xmlns:dc="http://purl.org/dc/elements/1.1/"
   xmlns:cc="http://creativecommons.org/ns#"
   xmlns:rdf="http://www.w3.org/1999/02/22-rdf-syntax-ns#"
   xmlns:svg="http://www.w3.org/2000/svg"
   xmlns="http://www.w3.org/2000/svg"
   xmlns:sodipodi="http://sodipodi.sourceforge.net/DTD/sodipodi-0.dtd"
   xmlns:inkscape="http://www.inkscape.org/namespaces/inkscape"
   width="113"
   height="40"
   viewBox="0 0 113 40.000001"
   id="svg3583"
   version="1.1"
   inkscape:version="0.91 r13725"
   sodipodi:docname="Criacao.svg">
  <defs
     id="defs3585" />
  <sodipodi:namedview
     id="base"
     pagecolor="#ffffff"
     bordercolor="#666666"
     borderopacity="1.0"
     inkscape:pageopacity="0.0"
     inkscape:pageshadow="2"
     inkscape:zoom="2.8"
     inkscape:cx="131.35609"
     inkscape:cy="100.9681"
     inkscape:document-units="px"
     inkscape:current-layer="layer1"
     showgrid="false"
     inkscape:window-width="1440"
     inkscape:window-height="847"
     inkscape:window-x="-8"
     inkscape:window-y="-8"
     inkscape:window-maximized="1"
     units="px"
     showguides="true"
     inkscape:guide-bbox="true">
    <sodipodi:guide
       position="66.785714,19.285715"
       orientation="0,1"
       id="guide3687" />
  </sodipodi:namedview>
  <metadata
     id="metadata3588">
    <rdf:RDF>
      <cc:Work
         rdf:about="">
        <dc:format>image/svg+xml</dc:format>
        <dc:type
           rdf:resource="http://purl.org/dc/dcmitype/StillImage" />
        <dc:title></dc:title>
      </cc:Work>
    </rdf:RDF>
  </metadata>
  <g
     inkscape:label="Layer 1"
     inkscape:groupmode="layer"
     id="layer1"
     transform="translate(0,-1012.3622)">
    <g
       style="overflow:visible;fill-rule:evenodd;stroke-width:0.50099999;stroke-linejoin:bevel"
       id="g3501"
       transform="matrix(1.25,0,0,1.2499999,6.493125,1017.081)">
      <g
         transform="scale(1,-1)"
         font-size="16"
         id="Document-46"
         style="font-size:16px;font-family:'Times New Roman';fill:none;stroke:#000000">
        <g
           transform="translate(0,-24.45)"
           id="Spread-4">
          <g
             id="Layer 1-6">
            <g
               stroke-miterlimit="79.8403193612775"
               id="Group-8"
               style="fill:#ff961c;fill-rule:nonzero;stroke:none;stroke-width:0.514;stroke-linecap:round;stroke-linejoin:round;stroke-miterlimit:79.84031677">
              <g
                 id="Group_1-8">
                <path
                   id="path3483"
                   d="m 9.743,14.145 0,2.857 c -0.062,0.328 -0.242,0.648 -0.539,0.96 -0.296,0.391 -0.64,0.586 -1.03,0.586 l -6.792,0 C 1.148,18.454 0.949,18.325 0.785,18.161 0.621,17.997 0.484,17.818 0.375,17.623 0.266,17.428 0.18,17.236 0.118,17.049 0.055,16.862 0.016,16.698 0,16.557 L 0,5.784 C 0,5.581 0.055,5.37 0.164,5.152 0.274,4.933 0.41,4.734 0.574,4.555 0.738,4.375 0.91,4.227 1.09,4.11 1.269,3.993 1.429,3.934 1.57,3.934 l 6.065,0 c 0.156,0 0.344,0.055 0.562,0.164 0.219,0.109 0.43,0.25 0.633,0.421 0.203,0.172 0.374,0.367 0.515,0.586 0.14,0.219 0.211,0.445 0.211,0.679 l 0,2.787 -2.694,0 0,-2.318 -4.075,0 0,9.976 4.075,0 0,-2.084 2.881,0 z"
                   inkscape:connector-curvature="0"
                   style="marker-start:none;marker-end:none" />
                <path
                   id="path3485"
                   d="m 11.493,5.901 1.054,0 0,4.122 -1.382,0 0,2.6 1.382,0 0,3.934 -1.054,0 0,1.991 8.712,0 c 0.141,0 0.321,-0.039 0.539,-0.117 0.219,-0.078 0.426,-0.188 0.621,-0.328 0.195,-0.141 0.367,-0.312 0.515,-0.515 0.148,-0.203 0.222,-0.43 0.222,-0.68 l 0,-3.934 c -0.062,-0.172 -0.16,-0.336 -0.292,-0.492 -0.133,-0.156 -0.285,-0.32 -0.457,-0.492 -0.172,-0.156 -0.289,-0.261 -0.351,-0.316 -0.063,-0.054 -0.094,-0.129 -0.094,-0.222 0,-0.047 0.437,-0.617 1.312,-1.71 l 0,-3.817 0.96,0 0,-2.038 c -0.531,0 -0.992,0.012 -1.382,0.035 -0.39,0.024 -0.722,0.071 -0.995,0.141 -0.274,0.07 -0.5,0.179 -0.68,0.328 C 19.944,4.539 19.8,4.73 19.69,4.964 19.487,5.433 19.358,5.999 19.304,6.662 19.249,7.326 19.206,8.22 19.175,9.344 l -0.023,0.609 -3.654,0 0,-4.052 1.218,0 0,-1.967 -5.223,0 0,1.967 z m 7.635,6.815 0,3.513 -3.443,0 0,-3.513 3.443,0 z"
                   inkscape:connector-curvature="0"
                   style="marker-start:none;marker-end:none" />
                <path
                   id="path3487"
                   d="m 24.594,5.901 1.031,0 0,10.656 -1.031,0 0,1.991 5.223,0 0,-1.991 -1.241,0 0,-10.656 1.241,0 0,-1.967 -5.223,0 0,1.967 z"
                   inkscape:connector-curvature="0"
                   style="marker-start:none;marker-end:none" />
                <path
                   id="path3489"
                   d="m 31.558,6.135 1.054,0 0,4.052 -1.382,0 0,2.787 1.453,0 0,3.934 c 0,0.141 0.046,0.309 0.14,0.504 0.094,0.195 0.207,0.375 0.34,0.539 0.132,0.164 0.277,0.304 0.433,0.421 0.156,0.117 0.297,0.176 0.421,0.176 l 6.956,0 c 0.094,0.015 0.223,-0.02 0.386,-0.106 0.164,-0.085 0.324,-0.206 0.481,-0.363 0.156,-0.156 0.292,-0.339 0.409,-0.55 0.117,-0.211 0.184,-0.425 0.199,-0.644 l 0,-10.75 1.125,0 0,-2.201 -5.2,0 0,2.201 1.031,0 0,4.052 -3.654,0 0,-4.052 1.031,0 0,-2.201 -5.223,0 0,2.201 z m 4.192,9.626 0,-2.787 3.654,0 0,2.787 -0.351,0.468 -2.951,0 -0.352,-0.468 z"
                   inkscape:connector-curvature="0"
                   style="marker-start:none;marker-end:none" />
                <path
                   id="path3491"
                   d="m 48.692,0 1.897,0 0,3.934 2.037,0 c 0.156,0 0.344,0.055 0.562,0.164 0.219,0.109 0.43,0.25 0.633,0.421 0.203,0.172 0.374,0.367 0.515,0.586 0.14,0.219 0.211,0.445 0.211,0.679 l 0,2.787 -2.694,0 0,-2.318 -4.075,0 0,9.976 4.075,0 0,-2.084 2.881,0 0,2.857 c -0.062,0.328 -0.242,0.648 -0.539,0.96 -0.296,0.391 -0.64,0.586 -1.03,0.586 l -6.792,0 c -0.234,-0.094 -0.433,-0.223 -0.597,-0.387 -0.164,-0.164 -0.301,-0.343 -0.41,-0.538 -0.109,-0.195 -0.195,-0.387 -0.257,-0.574 -0.063,-0.187 -0.102,-0.351 -0.118,-0.492 l 0,-10.773 c 0,-0.203 0.055,-0.414 0.164,-0.632 0.11,-0.219 0.246,-0.418 0.41,-0.597 0.164,-0.18 0.336,-0.328 0.516,-0.445 0.179,-0.117 0.339,-0.176 0.48,-0.176 l 2.904,0 0,-1.522 -0.773,0 0,-2.412 z"
                   inkscape:connector-curvature="0"
                   style="marker-start:none;marker-end:none" />
                <path
                   id="path3493"
                   d="m 61.028,16.229 -0.352,-0.468 0,-2.787 3.654,0 0,2.787 -0.351,0.468 -2.951,0 z m -4.544,-12.295 0,2.201 1.054,0 0,4.052 -1.382,0 0,2.787 1.453,0 0,3.934 c 0,0.141 0.046,0.309 0.14,0.504 0.094,0.195 0.207,0.375 0.34,0.539 0.132,0.164 0.277,0.304 0.433,0.421 0.156,0.117 0.297,0.176 0.421,0.176 l 6.956,0 c 0.094,0.015 0.223,-0.02 0.386,-0.106 0.164,-0.085 0.324,-0.206 0.481,-0.363 0.156,-0.156 0.292,-0.339 0.409,-0.55 0.117,-0.211 0.184,-0.425 0.199,-0.644 l 0,-10.75 1.125,0 0,-2.201 -5.2,0 0,2.201 1.031,0 0,4.052 -3.654,0 0,-4.052 1.031,0 0,-2.201 -5.223,0 z m 8.572,16.089 -2.108,0 0.047,0 -2.365,2.67 -2.249,-2.67 0,2.857 1.312,1.57 2.061,0 2.389,-2.694 2.224,2.694 0,-2.858 -1.311,-1.569 z"
                   inkscape:connector-curvature="0"
                   style="marker-start:none;marker-end:none" />
                <path
                   id="path3495"
                   d="m 72.868,6.253 4.192,0 0,9.976 -4.192,0 0,-9.976 z m -2.951,-0.469 0,10.89 c 0,0.25 0.063,0.492 0.188,0.726 0.125,0.234 0.273,0.434 0.445,0.597 0.172,0.164 0.359,0.297 0.562,0.399 0.203,0.101 0.382,0.152 0.539,0.152 l 6.44,0 c 0.25,0 0.492,-0.059 0.726,-0.176 0.234,-0.117 0.437,-0.281 0.609,-0.492 0.172,-0.21 0.312,-0.456 0.421,-0.737 0.11,-0.281 0.164,-0.586 0.164,-0.914 l 0,-10.445 c 0,-0.14 -0.043,-0.316 -0.128,-0.527 C 79.797,5.046 79.687,4.843 79.555,4.648 79.422,4.453 79.285,4.285 79.145,4.145 79.004,4.004 78.879,3.934 78.77,3.934 l -7.283,0 c -0.032,0 -0.09,0.027 -0.176,0.082 C 71.225,4.071 71.128,4.137 71.018,4.215 70.909,4.293 70.8,4.371 70.69,4.449 70.581,4.527 70.495,4.59 70.433,4.637 70.308,4.761 70.191,4.929 70.081,5.14 69.972,5.351 69.917,5.566 69.917,5.784 Z"
                   inkscape:connector-curvature="0"
                   style="marker-start:none;marker-end:none" />
              </g>
            </g>
          </g>
        </g>
      </g>
    </g>
  </g>
</svg>
