<?xml version="1.0" encoding="UTF-8" standalone="no"?>
<!-- Created with Inkscape (http://www.inkscape.org/) -->

<svg
   xmlns:dc="http://purl.org/dc/elements/1.1/"
   xmlns:cc="http://creativecommons.org/ns#"
   xmlns:rdf="http://www.w3.org/1999/02/22-rdf-syntax-ns#"
   xmlns:svg="http://www.w3.org/2000/svg"
   xmlns="http://www.w3.org/2000/svg"
   xmlns:sodipodi="http://sodipodi.sourceforge.net/DTD/sodipodi-0.dtd"
   xmlns:inkscape="http://www.inkscape.org/namespaces/inkscape"
   width="120"
   height="40"
   viewBox="0 0 120 40.000001"
   id="svg3583"
   version="1.1"
   inkscape:version="0.91 r13725"
   sodipodi:docname="Design.svg">
  <defs
     id="defs3585" />
  <sodipodi:namedview
     id="base"
     pagecolor="#ffffff"
     bordercolor="#666666"
     borderopacity="1.0"
     inkscape:pageopacity="0.0"
     inkscape:pageshadow="2"
     inkscape:zoom="2.8"
     inkscape:cx="131.35609"
     inkscape:cy="100.9681"
     inkscape:document-units="px"
     inkscape:current-layer="layer1"
     showgrid="false"
     inkscape:window-width="1440"
     inkscape:window-height="847"
     inkscape:window-x="-8"
     inkscape:window-y="-8"
     inkscape:window-maximized="1"
     units="px"
     showguides="true"
     inkscape:guide-bbox="true">
    <sodipodi:guide
       position="66.785714,19.285715"
       orientation="0,1"
       id="guide3687" />
  </sodipodi:namedview>
  <metadata
     id="metadata3588">
    <rdf:RDF>
      <cc:Work
         rdf:about="">
        <dc:format>image/svg+xml</dc:format>
        <dc:type
           rdf:resource="http://purl.org/dc/dcmitype/StillImage" />
        <dc:title></dc:title>
      </cc:Work>
    </rdf:RDF>
  </metadata>
  <g
     inkscape:label="Layer 1"
     inkscape:groupmode="layer"
     id="layer1"
     transform="translate(0,-1012.3622)">
    <g
       style="overflow:visible;fill-rule:evenodd;stroke-width:0.50099999;stroke-linejoin:bevel"
       id="g3361"
       transform="matrix(1.25,0,0,1.25,1.796875,1020.2266)">
      <g
         transform="scale(1,-1)"
         font-size="16"
         id="Document"
         style="font-size:16px;font-family:'Times New Roman';fill:none;stroke:#000000">
        <g
           transform="translate(0,-19.417)"
           id="Spread">
          <g
             id="Layer 1">
            <g
               stroke-miterlimit="79.8403193612775"
               id="Group"
               style="fill:#ff961c;fill-rule:nonzero;stroke:none;stroke-width:0.514;stroke-linecap:round;stroke-linejoin:round;stroke-miterlimit:79.84031677">
              <g
                 id="Group_1">
                <path
                   id="path3345"
                   d="m 19.296,8.391 c 0,-1.56 -2.228,-3.244 -6.682,-5.054 C 10.582,2.585 8.814,2.014 7.311,1.624 5.808,1.235 4.541,1.04 3.511,1.04 2.732,1.04 2.189,1.346 1.882,1.959 1.827,2.154 1.771,2.411 1.716,2.732 1.66,3.052 1.632,3.365 1.632,3.671 l 0,5.806 c 0,0.307 -0.195,0.85 -0.586,1.629 C 0.768,11.58 0.572,11.9 0.46,12.067 0.265,12.429 0.112,12.735 0,12.986 c 0.14,0.584 0.425,0.925 0.857,1.022 0.431,0.098 0.995,0.147 1.691,0.147 1.642,0 3.223,-0.084 4.74,-0.251 1.518,-0.167 3.125,-0.46 4.824,-0.877 4.789,-1.17 7.184,-2.716 7.184,-4.636 z m -3.723,0.337 c 0,0.584 -1.19,1.107 -3.569,1.566 -2.38,0.46 -4.196,0.689 -5.448,0.689 -1.141,0 -1.711,-0.487 -1.711,-1.462 0,-0.445 0.014,-0.863 0.042,-1.253 C 4.914,7.878 4.984,7.474 5.095,7.057 L 5.638,4.843 c 1.614,0.223 2.761,0.404 3.444,0.543 0.681,0.14 1.294,0.272 1.837,0.397 0.543,0.126 1.085,0.307 1.628,0.543 0.543,0.236 1.065,0.494 1.565,0.773 0.084,0.055 0.23,0.167 0.438,0.334 0.209,0.167 0.369,0.32 0.481,0.459 0.361,0.307 0.542,0.585 0.542,0.836 z"
                   inkscape:connector-curvature="0"
                   style="marker-start:none;marker-end:none" />
                <path
                   id="path3347"
                   d="M 35.812,2.001 C 35.338,1.806 34.83,1.647 34.288,1.521 33.745,1.396 33.167,1.278 32.554,1.167 31.301,1.028 29.895,0.958 28.335,0.958 l -2.715,0 -1.546,0 c -0.278,0.028 -0.487,0.056 -0.626,0.084 -0.14,0.028 -0.349,0.112 -0.627,0.252 -1.003,0.475 -1.825,1.804 -2.464,3.986 -0.251,0.979 -0.46,1.93 -0.627,2.854 -0.168,0.923 -0.251,1.677 -0.251,2.266 0,0.557 0.014,0.941 0.042,1.151 0.028,0.209 0.153,0.614 0.376,1.213 0.223,0.6 0.697,1.208 1.421,1.822 0.391,-0.169 0.781,-0.337 1.171,-0.505 0.335,-0.196 0.669,-0.378 1.003,-0.546 0.614,-0.364 1.199,-0.547 1.757,-0.547 0.417,0 0.8,0.021 1.148,0.063 0.348,0.042 0.801,0.118 1.358,0.23 1.142,0.25 1.991,0.376 2.548,0.376 1.309,0 2.311,-0.683 3.008,-2.047 -0.362,-0.199 -0.85,-0.355 -1.462,-0.468 -0.613,-0.113 -1.407,-0.227 -2.381,-0.34 -2.228,-0.256 -3.593,-0.752 -4.094,-1.49 l 0.585,-0.042 1.629,0 1.504,0 1.545,0 1.295,0 c 0.251,0 0.515,-0.014 0.794,-0.042 C 33.004,9.2 33.38,9.131 33.854,9.019 33.213,7.262 31.904,6.383 29.927,6.384 l -1.838,0 -1.295,0.132 c -1.089,0 -1.634,-0.432 -1.634,-1.297 0,-1.005 1.435,-1.508 4.303,-1.508 1.642,0 2.965,-0.139 3.968,-0.417 1.003,-0.278 1.796,-0.709 2.381,-1.293 z"
                   inkscape:connector-curvature="0"
                   style="marker-start:none;marker-end:none" />
                <path
                   id="path3349"
                   d="m 48.249,8.852 c 0,-1.42 -0.766,-3.091 -2.297,-5.013 C 44.282,1.666 42.667,0.58 41.108,0.581 40.523,0.58 40.008,0.873 39.563,1.458 39.479,1.625 39.396,1.84 39.312,2.105 39.228,2.37 39.187,2.697 39.187,3.087 c 0,0.529 0.041,0.877 0.125,1.043 l 0.251,0.836 c 0.529,-0.14 0.905,-0.231 1.127,-0.273 0.223,-0.042 0.474,-0.064 0.752,-0.064 0.947,0 1.726,0.349 2.339,1.046 0.613,0.697 0.919,1.478 0.919,2.343 0,0.474 -0.362,0.711 -1.086,0.711 -0.613,0 -1.309,-0.098 -2.089,-0.293 -1.948,-0.559 -3.243,-0.839 -3.884,-0.839 -0.668,0 -1.197,0.125 -1.587,0.376 -0.529,0.362 -0.794,0.821 -0.794,1.378 0,0.613 1.239,2.409 3.718,5.388 2.618,3.119 4.553,4.678 5.806,4.678 0.279,0 0.536,-0.035 0.773,-0.104 0.237,-0.07 0.578,-0.244 1.023,-0.522 -0.946,-0.919 -1.768,-1.754 -2.464,-2.505 -0.501,-0.53 -0.961,-1.044 -1.379,-1.545 -0.557,-0.668 -1.023,-1.288 -1.399,-1.858 -0.376,-0.571 -0.689,-1.134 -0.94,-1.691 l 1.67,0.167 2.255,0.167 c 1.17,0 2.089,-0.181 2.756,-0.543 0.78,-0.334 1.17,-1.044 1.17,-2.131 z"
                   inkscape:connector-curvature="0"
                   style="marker-start:none;marker-end:none" />
                <path
                   id="path3351"
                   d="M 53.521,1.46 C 52.184,1.238 51.376,1.098 51.097,1.043 L 49.258,0.917 c 0,0.39 -0.026,1.031 -0.081,1.923 -0.054,0.892 -0.082,1.408 -0.082,1.547 l 0,2.257 c 0,1.7 0.088,3.037 0.263,4.013 0.175,0.974 0.431,1.796 0.768,2.465 0.337,0.669 0.829,1.297 1.476,1.881 0.668,-1.393 1.072,-2.577 1.211,-3.553 0.139,-0.975 0.209,-2.103 0.209,-3.385 l 0,-2.424 0,-1.923 c 0,-0.362 0.027,-0.662 0.083,-0.899 0.055,-0.237 0.194,-0.69 0.416,-1.359 z"
                   inkscape:connector-curvature="0"
                   style="marker-start:none;marker-end:none" />
                <path
                   id="path3353"
                   d="m 74.162,9.442 c 0,-0.251 -0.167,-0.696 -0.503,-1.336 L 73.24,7.395 C 73.184,7.033 73.142,6.761 73.114,6.58 73.086,6.399 73.072,6.142 73.072,5.808 c 0,-0.251 0,-0.495 0,-0.731 0,-0.238 0.042,-0.593 0.127,-1.066 l 0.128,-2.298 c -0.808,0 -1.511,0.041 -2.11,0.124 -0.598,0.083 -1.1,0.159 -1.503,0.229 C 69.31,2.135 68.746,2.211 68.022,2.294 67.27,2.294 65.85,2.008 63.761,1.437 61.672,0.866 60.169,0.58 59.249,0.581 57.774,0.58 56.618,0.832 55.782,1.335 c -1.058,0.586 -1.587,1.522 -1.587,2.806 0,2.486 1.95,5.236 5.848,8.253 l 5.138,3.77 1.379,0 c 0.111,-0.251 0.202,-0.495 0.271,-0.731 0.07,-0.238 0.119,-0.453 0.146,-0.648 0,-1.114 -1.657,-2.73 -4.972,-4.847 -3.093,-1.978 -4.639,-3.761 -4.639,-5.349 0,-0.641 0.244,-1.093 0.731,-1.357 0.488,-0.265 1.149,-0.398 1.985,-0.398 0.612,0 1.357,0.091 2.234,0.272 0.878,0.181 1.985,0.481 3.321,0.899 2.618,0.781 3.927,1.506 3.927,2.175 L 69.439,6.765 69.271,7.434 67.476,6.851 C 66.753,6.573 66.085,6.434 65.472,6.434 c -0.306,0 -0.577,0.042 -0.814,0.126 -0.237,0.083 -0.473,0.208 -0.71,0.375 -0.236,0.168 -0.431,0.39 -0.584,0.669 -0.153,0.278 -0.313,0.668 -0.48,1.169 l 4.761,1.254 c 2.173,0.557 3.635,0.835 4.387,0.835 0.223,0 0.452,-0.035 0.689,-0.104 0.237,-0.07 0.453,-0.174 0.648,-0.313 0.529,-0.251 0.793,-0.585 0.793,-1.003 z"
                   inkscape:connector-curvature="0"
                   style="marker-start:none;marker-end:none" />
                <path
                   id="path3355"
                   d="m 93.125,12.738 c 0,-0.446 -0.098,-1.045 -0.293,-1.796 l -0.25,-1.42 c 0,-0.474 0.055,-1.03 0.167,-1.67 l 0.334,-3.05 C 93.083,3.438 92.61,2.283 91.663,1.336 90.632,0.445 89.31,-0.001 87.694,0 86.942,-0.001 86.184,0.096 85.418,0.292 84.652,0.486 83.823,0.82 82.932,1.294 81.763,1.879 80.691,2.617 79.716,3.508 79.382,2.617 79.02,2.06 78.63,1.838 78.435,1.67 78.066,1.538 77.523,1.441 76.98,1.343 76.235,1.294 75.288,1.294 l -0.084,5.1 c 0,1.003 0.014,1.825 0.042,2.465 0.028,0.641 0.098,1.24 0.209,1.798 0.084,0.64 0.237,1.233 0.46,1.776 0.222,0.543 0.612,1.261 1.169,2.153 0.864,-1.003 1.88,-2.786 3.05,-5.349 0.891,-2.006 1.865,-3.496 2.924,-4.471 1.058,-0.975 2.297,-1.462 3.717,-1.462 1.448,0 2.423,1.655 2.924,4.968 0.251,1.836 0.606,3.235 1.066,4.195 0.459,0.961 0.94,1.44 1.441,1.44 0.25,0 0.473,-0.097 0.668,-0.292 l 0.251,-0.877 z"
                   inkscape:connector-curvature="0"
                   style="marker-start:none;marker-end:none" />
              </g>
            </g>
          </g>
        </g>
      </g>
    </g>
  </g>
</svg>
