<?xml version="1.0" encoding="UTF-8" standalone="no"?>
<!-- Created with Inkscape (http://www.inkscape.org/) -->

<svg
   xmlns:dc="http://purl.org/dc/elements/1.1/"
   xmlns:cc="http://creativecommons.org/ns#"
   xmlns:rdf="http://www.w3.org/1999/02/22-rdf-syntax-ns#"
   xmlns:svg="http://www.w3.org/2000/svg"
   xmlns="http://www.w3.org/2000/svg"
   xmlns:sodipodi="http://sodipodi.sourceforge.net/DTD/sodipodi-0.dtd"
   xmlns:inkscape="http://www.inkscape.org/namespaces/inkscape"
   width="132"
   height="40"
   viewBox="0 0 132 40.000001"
   id="svg3583"
   version="1.1"
   inkscape:version="0.91 r13725"
   sodipodi:docname="Tecnologia.svg">
  <defs
     id="defs3585" />
  <sodipodi:namedview
     id="base"
     pagecolor="#ffffff"
     bordercolor="#666666"
     borderopacity="1.0"
     inkscape:pageopacity="0.0"
     inkscape:pageshadow="2"
     inkscape:zoom="2.8"
     inkscape:cx="114.57037"
     inkscape:cy="100.9681"
     inkscape:document-units="px"
     inkscape:current-layer="layer1"
     showgrid="false"
     inkscape:window-width="1440"
     inkscape:window-height="847"
     inkscape:window-x="-8"
     inkscape:window-y="-8"
     inkscape:window-maximized="1"
     units="px"
     showguides="true"
     inkscape:guide-bbox="true">
    <sodipodi:guide
       position="66.785714,19.285715"
       orientation="0,1"
       id="guide3687" />
  </sodipodi:namedview>
  <metadata
     id="metadata3588">
    <rdf:RDF>
      <cc:Work
         rdf:about="">
        <dc:format>image/svg+xml</dc:format>
        <dc:type
           rdf:resource="http://purl.org/dc/dcmitype/StillImage" />
        <dc:title></dc:title>
      </cc:Work>
    </rdf:RDF>
  </metadata>
  <g
     inkscape:label="Layer 1"
     inkscape:groupmode="layer"
     id="layer1"
     transform="translate(0,-1012.3622)">
    <g
       style="overflow:visible;fill-rule:evenodd;stroke-width:0.50099999;stroke-linejoin:bevel"
       id="g3457"
       transform="matrix(1.25,0,0,1.25,2.169375,1024.8234)">
      <g
         transform="scale(1,-1)"
         font-size="16"
         id="Document-4"
         style="font-size:16px;font-family:'Times New Roman';fill:none;stroke:#000000">
        <g
           transform="translate(0,-15.262)"
           id="Spread-1">
          <g
             id="Layer 1-8">
            <g
               stroke-miterlimit="79.8403193612775"
               id="Group-7"
               style="fill:#ff961c;fill-rule:nonzero;stroke:none;stroke-width:0.514;stroke-linecap:round;stroke-linejoin:round;stroke-miterlimit:79.84031677">
              <g
                 id="Group_1-7">
                <path
                   id="path3433"
                   d="m 8.902,12.076 -2.847,0 0,-11.783 -3.15,0 0,11.76 -2.905,0 0,2.869 8.902,0 0,-2.846 z"
                   inkscape:connector-curvature="0"
                   style="marker-start:none;marker-end:none" />
                <path
                   id="path3435"
                   d="m 17.63,0.293 -7.297,0 0,14.629 6.841,0 0,-2.822 -3.702,0 0,-2.976 3.175,0 0,-2.717 -3.175,0 0,-3.233 4.158,0 0,-2.881 z"
                   inkscape:connector-curvature="0"
                   style="marker-start:none;marker-end:none" />
                <path
                   id="path3437"
                   d="M 27.835,0.527 C 27.032,0.176 26.137,0 25.154,0 c -1.765,0 -3.239,0.644 -4.422,1.933 -1.183,1.288 -1.775,3.166 -1.775,5.634 0,2.545 0.586,4.46 1.757,5.745 1.172,1.284 2.538,1.926 4.1,1.926 0.937,0 1.936,-0.242 2.998,-0.726 l 0,-3.068 c -0.828,0.421 -1.364,0.659 -1.61,0.714 -0.246,0.054 -0.51,0.082 -0.791,0.082 -0.828,0 -1.554,-0.344 -2.178,-1.031 -0.625,-0.687 -0.937,-1.87 -0.937,-3.549 0,-1.757 0.302,-2.973 0.907,-3.648 0.606,-0.676 1.357,-1.013 2.255,-1.013 0.734,0 1.527,0.288 2.377,0.866 l 0,-3.338 z"
                   inkscape:connector-curvature="0"
                   style="marker-start:none;marker-end:none" />
                <path
                   id="path3439"
                   d="m 39.634,0.293 -3.339,0 -3.724,9.23 -0.047,0 0,-9.23 -3.069,0 0,14.652 3.455,0 3.666,-9.089 0.059,0 0,9.089 2.999,0 0,-14.652 z"
                   inkscape:connector-curvature="0"
                   style="marker-start:none;marker-end:none" />
                <path
                   id="path3441"
                   d="m 41.605,7.684 c 0,2.053 0.222,3.56 0.667,4.521 0.445,0.96 1.037,1.706 1.775,2.237 0.738,0.531 1.669,0.796 2.793,0.796 0.93,0 1.679,-0.154 2.249,-0.462 0.57,-0.309 1.099,-0.757 1.587,-1.347 0.488,-0.59 0.846,-1.32 1.072,-2.19 0.226,-0.871 0.34,-2.025 0.34,-3.462 0,-2.943 -0.49,-4.975 -1.47,-6.096 C 49.638,0.561 48.371,0 46.817,0 45.232,0 43.967,0.58 43.022,1.74 42.077,2.899 41.605,4.881 41.605,7.684 Z m 3.338,0.89 0,-0.937 c 0,-1.538 0.051,-2.551 0.152,-3.04 0.102,-0.488 0.318,-0.872 0.65,-1.153 0.332,-0.281 0.728,-0.422 1.189,-0.422 0.375,0 0.719,0.137 1.031,0.41 0.312,0.274 0.531,0.689 0.656,1.247 0.125,0.559 0.187,1.552 0.187,2.981 0,1.281 -0.053,2.192 -0.158,2.735 -0.106,0.543 -0.318,0.982 -0.639,1.318 -0.32,0.336 -0.71,0.503 -1.171,0.503 -0.671,0 -1.155,-0.29 -1.452,-0.872 -0.297,-0.582 -0.445,-1.505 -0.445,-2.77 z"
                   inkscape:connector-curvature="0"
                   style="marker-start:none;marker-end:none" />
                <path
                   id="path3443"
                   d="m 60.84,0.293 -6.84,0 0,14.629 3.139,0 0,-11.748 3.701,0 0,-2.881 z"
                   inkscape:connector-curvature="0"
                   style="marker-start:none;marker-end:none" />
                <path
                   id="path3445"
                   d="m 61.524,7.684 c 0,2.053 0.222,3.56 0.667,4.521 0.445,0.96 1.037,1.706 1.775,2.237 0.738,0.531 1.669,0.796 2.793,0.796 0.93,0 1.679,-0.154 2.249,-0.462 0.57,-0.309 1.099,-0.757 1.587,-1.347 0.488,-0.59 0.846,-1.32 1.072,-2.19 0.226,-0.871 0.34,-2.025 0.34,-3.462 0,-2.943 -0.49,-4.975 -1.47,-6.096 C 69.557,0.561 68.29,0 66.736,0 65.151,0 63.886,0.58 62.941,1.74 61.996,2.899 61.524,4.881 61.524,7.684 Z m 3.338,0.89 0,-0.937 c 0,-1.538 0.051,-2.551 0.152,-3.04 0.102,-0.488 0.318,-0.872 0.65,-1.153 0.332,-0.281 0.728,-0.422 1.189,-0.422 0.375,0 0.719,0.137 1.031,0.41 0.312,0.274 0.531,0.689 0.656,1.247 0.125,0.559 0.187,1.552 0.187,2.981 0,1.281 -0.053,2.192 -0.158,2.735 -0.106,0.543 -0.318,0.982 -0.639,1.318 -0.32,0.336 -0.71,0.503 -1.171,0.503 -0.671,0 -1.155,-0.29 -1.452,-0.872 -0.297,-0.582 -0.445,-1.505 -0.445,-2.77 z"
                   inkscape:connector-curvature="0"
                   style="marker-start:none;marker-end:none" />
                <path
                   id="path3447"
                   d="M 84.144,6.196 C 84.144,5.572 83.996,4.769 83.699,3.789 83.402,2.809 82.83,1.933 81.983,1.16 81.136,0.387 80.134,0 78.979,0 c -3.585,0 -5.377,2.577 -5.376,7.73 -10e-4,2.437 0.466,4.301 1.399,5.593 0.933,1.293 2.259,1.939 3.977,1.939 2.475,0 3.97,-1.214 4.486,-3.643 l -2.776,-1.206 c -0.055,1.312 -0.648,1.968 -1.781,1.967 -0.491,10e-4 -0.892,-0.154 -1.2,-0.462 -0.309,-0.309 -0.51,-0.736 -0.603,-1.283 -0.094,-0.546 -0.141,-1.483 -0.141,-2.811 0,-1.561 0.051,-2.633 0.152,-3.215 0.102,-0.582 0.309,-1.019 0.621,-1.312 0.312,-0.292 0.719,-0.439 1.218,-0.439 1.172,0 1.796,0.968 1.874,2.905 l -1.944,0 0,2.834 5.259,0 0,-2.401 z"
                   inkscape:connector-curvature="0"
                   style="marker-start:none;marker-end:none" />
                <path
                   id="path3449"
                   d="m 86.22,14.922 3.163,0 0,-14.629 -3.163,0 0,14.629 z"
                   inkscape:connector-curvature="0"
                   style="marker-start:none;marker-end:none" />
                <path
                   id="path3451"
                   d="m 102.129,0.293 -3.092,0 -0.481,2.284 -3.853,0 -0.539,-2.284 -3.092,0 4.181,14.629 3.21,0 3.666,-14.629 z m -4.029,4.65 -1.289,6.383 -0.046,0 -1.488,-6.383 2.823,0 z"
                   inkscape:connector-curvature="0"
                   style="marker-start:none;marker-end:none" />
              </g>
            </g>
          </g>
        </g>
      </g>
    </g>
  </g>
</svg>
